<svg width="137" height="176" viewBox="0 0 137 176" fill="none" xmlns="http://www.w3.org/2000/svg">
<path d="M3 20V156C3 160.509 4.72522 164.833 7.79613 168.021C10.867 171.209 15.0321 173 19.375 173H117.625C121.968 173 126.133 171.209 129.204 168.021C132.275 164.833 134 160.509 134 156V56.907C134 54.6423 133.564 52.4004 132.717 50.3131C131.871 48.2258 130.631 46.3351 129.071 44.752L92.7186 7.845C89.6595 4.73959 85.5511 3.00055 81.2725 3H19.375C15.0321 3 10.867 4.79107 7.79613 7.97918C4.72522 11.1673 3 15.4913 3 20V20Z" stroke="#020202" stroke-width="5" stroke-linecap="round" stroke-linejoin="round" fill="#c2c2c2"/>
<path d="M84.875 3V37C84.875 41.5087 86.6002 45.8327 89.6711 49.0208C92.742 52.2089 96.9071 54 101.25 54H134" stroke="#020202" stroke-width="5" stroke-linejoin="round"/>
</svg>