<svg width="206" height="212" viewBox="0 0 206 212" fill="none" xmlns="http://www.w3.org/2000/svg">
<path d="M14.3717 150.288C13.5188 148.218 12.698 146.148 11.8933 144.077C5.82594 128.326 13.4383 114.116 20.2298 100.203L30.0792 80.0631C32.0588 76.0053 35.1005 72.5934 38.8342 70.2084L67.1592 52.1222L95.1462 22.3428C96.8835 20.4875 99.1006 19.1829 101.535 18.5831L120.59 13.8463C129.812 11.5772 133.771 11.9416 136.749 16.2975C147.065 31.3694 153.969 43.7747 163.158 58.7969C168.164 66.9788 179.719 85.7772 180.443 87.0194C182.664 90.8619 181.763 94.075 181.682 98.4806C181.489 108.633 183.227 118.836 186.832 128.293C187.911 131.109 189.15 133.891 189.713 136.856C190.228 139.523 189.536 156.466 189.005 162.197C188.57 166.851 177.884 184.225 174.054 186.328C169.837 188.647 138.583 200.473 131.679 202.493C124.775 204.514 94.8405 197.475 79.2939 195.023C69.6859 193.516 60.0619 191.993 50.4539 190.485C42.1173 189.177 33.8291 190.171 29.1619 181.508C23.6739 171.372 18.7492 160.954 14.3717 150.288Z" fill="url(#paint0_linear_8_73)"/>
<path d="M50.4378 190.469C60.0458 191.976 69.6698 193.5 79.2778 195.007C84.283 195.802 90.7848 197.061 97.5281 198.353C92.9897 192.821 86.2142 186.262 81.6758 180.73C80.6941 179.538 79.6962 178.295 79.3422 176.772C78.972 175.148 79.3905 173.476 79.825 171.869C81.2091 166.602 81.5631 160.888 82.9472 155.621C74.3692 157.675 54.6061 161.584 52.9806 161.103C51.1781 160.573 49.7136 159.232 48.3134 157.923C38.1261 148.35 30.1597 138.694 22.3703 127.018C21.453 125.643 20.5195 124.219 20.1816 122.579C19.8597 121.039 20.1011 119.449 20.3425 117.908C20.9219 114.066 22.2094 103.416 23.2394 94.0253L20.2137 100.203C13.4383 114.116 5.82593 128.326 11.9094 144.077C12.7141 146.164 13.5348 148.234 14.3878 150.288C18.7535 160.952 23.6801 171.363 29.1458 181.475C33.7969 190.154 42.1012 189.16 50.4378 190.469Z" fill="url(#paint1_linear_8_73)"/>
<path d="M136.877 16.4797C134.898 14.0781 131.035 14.5419 126.98 18.3513L112.399 33.3569C111.497 34.2844 111.015 35.5597 111.095 36.8681L112.656 67.5088C112.705 68.5356 113.075 69.4963 113.718 70.2747C118.901 76.5022 137.215 106.431 142.526 106.431C147.821 106.431 157.075 85.1975 161.79 85.3134C162.595 85.33 166.796 85.595 170.9 86.8869C174.73 88.0794 176.227 82.6634 175.438 78.8209C171.479 72.3616 166.152 63.6994 163.158 58.7969C154.001 43.8409 147.113 31.4688 136.877 16.4797Z" fill="url(#paint2_linear_8_73)"/>
<path d="M69.0261 76.8003C74.3853 75.9722 92.2655 72.8419 95.6291 71.4837C102.195 68.8172 107.989 57.4553 111.819 51.3438C111.819 51.3438 113.139 71.2684 111.819 79.0528C110.902 84.4688 107.442 112.791 103.966 119.581L82.9472 155.621L52.0633 123.838C49.44 121.138 47.7663 119.714 46.8167 115.888C44.6441 107.143 40.7011 94.2406 40.685 86.6384C40.6689 79.0363 60.5769 78.0922 69.0261 76.8003Z" fill="url(#paint3_linear_8_73)"/>
<path d="M108.086 34.3506C106.026 31.8166 105.446 28.2225 106.154 25.0094C106.75 22.3262 112.157 17.1422 113.912 15.5025L101.535 18.5831C99.1032 19.1897 96.8879 20.4933 95.1463 22.3428L67.1592 52.1222C67.1592 52.1222 94.2611 40.4953 108.086 34.3506Z" fill="url(#paint4_linear_8_73)"/>
<path d="M186.816 128.293C184.114 121.193 182.455 113.719 181.892 106.116C172.654 112.625 167.488 121.072 152.617 123.142C148.674 123.689 142.575 124.451 138.728 125.494C133.964 126.786 129.555 130.413 122.409 131.092C117.323 131.589 104.497 131.208 106.428 134.156C108.359 137.104 119.866 143.05 122.731 145.452C126.803 148.814 130.343 152.773 133.739 156.847C135.509 158.983 138.165 164.168 141.255 165.575C142.043 165.94 142.88 166.039 143.717 165.774C145.182 165.327 146.357 164.234 147.499 163.19C158.578 153.089 171.032 144.708 184.467 138.313C185.899 137.634 187.444 136.873 188.152 135.415C188.458 134.769 188.587 133.891 188.603 132.947C188.039 131.39 187.412 129.85 186.816 128.293Z" fill="url(#paint5_linear_8_73)"/>
<path d="M189.697 136.856C189.488 135.779 189.182 134.719 188.828 133.676C188.554 134.653 187.959 135.73 186.671 136.74C182.97 139.655 168.695 144.143 152.987 158.304C142.735 167.546 142.719 168.788 140.515 178.974C136.91 195.653 131.18 201.715 130.086 202.742C130.681 202.675 131.212 202.593 131.647 202.46C138.567 200.456 169.805 188.614 174.022 186.295C177.852 184.192 188.538 166.818 188.973 162.163C189.52 156.466 190.212 139.522 189.697 136.856Z" fill="url(#paint6_linear_8_73)"/>
<defs>
<linearGradient id="paint0_linear_8_73" x1="141.007" y1="34.8475" x2="63.1021" y2="227.177" gradientUnits="userSpaceOnUse">
<stop stop-color="#9E958E"/>
<stop offset="0.46" stop-color="#8E8884"/>
<stop offset="1" stop-color="#757575"/>
</linearGradient>
<linearGradient id="paint1_linear_8_73" x1="14.2574" y1="198.977" x2="77.8786" y2="130.236" gradientUnits="userSpaceOnUse">
<stop stop-color="#37474F"/>
<stop offset="0.612" stop-color="#42565F" stop-opacity="0.192"/>
<stop offset="0.757" stop-color="#455A64" stop-opacity="0"/>
</linearGradient>
<linearGradient id="paint2_linear_8_73" x1="160.218" y1="110.475" x2="118.407" y2="20.3523" gradientUnits="userSpaceOnUse">
<stop stop-color="#9E958E"/>
<stop offset="0.442" stop-color="#AEA298"/>
<stop offset="1" stop-color="#C9B8A9"/>
</linearGradient>
<linearGradient id="paint3_linear_8_73" x1="60.3548" y1="173.153" x2="77.3667" y2="83.4753" gradientUnits="userSpaceOnUse">
<stop stop-color="#4C5C64"/>
<stop offset="1" stop-color="#455A64" stop-opacity="0"/>
</linearGradient>
<linearGradient id="paint4_linear_8_73" x1="67.1624" y1="33.814" x2="113.915" y2="33.814" gradientUnits="userSpaceOnUse">
<stop stop-color="#4C5C64"/>
<stop offset="1" stop-color="#455A64" stop-opacity="0"/>
</linearGradient>
<linearGradient id="paint5_linear_8_73" x1="140.436" y1="126.88" x2="196.177" y2="149.205" gradientUnits="userSpaceOnUse">
<stop stop-color="#9E958E"/>
<stop offset="0.25" stop-color="#AEA298"/>
<stop offset="0.566" stop-color="#C9B8A9"/>
</linearGradient>
<linearGradient id="paint6_linear_8_73" x1="168.415" y1="204.31" x2="156.458" y2="158.48" gradientUnits="userSpaceOnUse">
<stop stop-color="#37474F"/>
<stop offset="0.808" stop-color="#42565F" stop-opacity="0.192"/>
<stop offset="1" stop-color="#455A64" stop-opacity="0"/>
</linearGradient>
</defs>
</svg>
