<svg width="190" height="188" viewBox="0 0 190 188" fill="none" xmlns="http://www.w3.org/2000/svg">
<path d="M97.182 64.8453L139.398 7.34376C147.577 13.2334 149.402 24.5575 143.45 32.665L105.777 83.9684" fill="#C2C2C2"/>
<path d="M97.182 64.8453L139.398 7.34376C147.577 13.2334 149.402 24.5575 143.45 32.665L105.777 83.9684" stroke="#C2C2C2" stroke-width="5" stroke-miterlimit="10"/>
<path d="M83.1547 114.783C74.9758 108.893 73.15 97.5691 79.1023 89.4616L84.743 81.78L93.3523 100.903L63.8281 141" fill="#C2C2C2"/>
<path d="M83.1547 114.783C74.9758 108.893 73.15 97.5691 79.1023 89.4616L84.743 81.78L93.3523 100.903L63.8281 141" stroke="#C2C2C2" stroke-width="5" stroke-miterlimit="10"/>
<path d="M77.0984 82.5291L97.182 109.51" stroke="#999999" stroke-width="4" stroke-miterlimit="10"/>
<path d="M129.141 135.125L109.844 110.156L129.141 135.125Z" fill="#C2C2C2"/>
<path d="M129.141 135.125L109.844 110.156" stroke="#C2C2C2" stroke-width="5" stroke-miterlimit="10"/>
<path d="M108.33 114.783C116.509 108.893 118.334 97.5691 112.382 89.4616L52.0867 7.34375C43.9078 13.2334 42.082 24.5575 48.0344 32.665L126.231 137.872" fill="#C2C2C2"/>
<path d="M108.33 114.783C116.509 108.893 118.334 97.5691 112.382 89.4616L52.0867 7.34375C43.9078 13.2334 42.082 24.5575 48.0344 32.665L126.231 137.872" stroke="#C2C2C2" stroke-width="5" stroke-miterlimit="10"/>
<path d="M96.0984 79.3125C93.8522 79.3125 92.0312 81.1143 92.0312 83.3369C92.0312 85.5595 93.8522 87.3613 96.0984 87.3613C98.3447 87.3613 100.166 85.5595 100.166 83.3369C100.166 81.1143 98.3447 79.3125 96.0984 79.3125Z" fill="#2F2F2F"/>
<path d="M66.7969 132.188L86.0938 107.219L66.7969 132.188Z" fill="#C2C2C2"/>
<path d="M66.7969 132.188L86.0938 107.219" stroke="#C2C2C2" stroke-width="5" stroke-miterlimit="10"/>
<path d="M59.375 129.25L68.8453 118.719C69.1378 118.395 69.4993 118.139 69.9038 117.97C70.3083 117.801 70.7456 117.723 71.1843 117.741C71.623 117.759 72.0522 117.873 72.4409 118.076C72.8296 118.278 73.1681 118.563 73.432 118.91L79.132 126.415L71.25 139.531L59.375 129.25Z" fill="#DD5322"/>
<path d="M133.03 129.25L123.619 118.778C123.323 118.448 122.956 118.189 122.546 118.018C122.135 117.848 121.691 117.771 121.246 117.794C120.801 117.816 120.367 117.938 119.976 118.149C119.585 118.36 119.247 118.655 118.987 119.013L113.362 126.768L121.155 139.531L133.03 129.25Z" fill="#DD5322"/>
<path d="M141.698 124.477C152.416 124.477 162.851 129.97 168.58 139.796C177.13 154.439 172.039 173.239 157.255 181.684C142.455 190.144 123.47 185.107 114.935 170.463C106.4 155.82 111.477 137.034 126.276 128.589C131.13 125.798 136.459 124.477 141.698 124.477ZM141.787 172.578C144.771 172.578 147.799 171.829 150.575 170.243C158.991 165.44 161.886 154.747 157.032 146.42C152.178 138.092 141.372 135.228 132.955 140.031C124.539 144.833 121.645 155.526 126.498 163.854C129.749 169.45 135.687 172.578 141.787 172.578Z" fill="#DD5322"/>
<path d="M48.3016 124.477C53.5563 124.477 58.8703 125.798 63.7391 128.574C78.5383 137.02 83.6297 155.82 75.0797 170.448C66.5445 185.092 47.5445 190.13 32.7602 181.67C17.9609 173.224 12.8695 154.424 21.4195 139.796C27.1344 129.984 37.5844 124.477 48.3016 124.477ZM48.2125 172.578C54.3133 172.578 60.2508 169.45 63.5016 163.868C68.3555 155.541 65.4609 144.848 57.0445 140.045C48.6281 135.243 37.8219 138.107 32.968 146.434C28.1141 154.762 31.0086 165.455 39.425 170.258C42.1018 171.77 45.1297 172.57 48.2125 172.578Z" fill="#DD5322"/>
</svg>